# xmcd
#
# Track frame offsets:
#	183
#	15423
#	28963
#	44043
#	58993
#	72190
#	87490
#	101603
#	112503
#	125540
#	139795
#	154815
#	168575
#	185465
#	200200
#	214853
#	229800
#	245045
#	260188
#	272708
#	286168
#	299763
#
# Disc length: 4190 seconds
#
# Revision: 0
# Processed by: cddbd v1.5.2PL0 Copyright (c) Steve Scherf et al.
# Submitted via: EasyCDDAExtractor 16.0.6.1
#
DISCID=61105c16
DTITLE=Συλλογικός δίσκος - Πέντε Έλληνες στον Άδη-Fünf Griechen in der Hölle
DYEAR=1982
DGENRE=Ρεμπέτικη
TTITLE0=Αμπατζή Ρίτα - Γκαρσόνα [Kellnerin]
TTITLE1=Διαμαντίδης Αντώνης ή Νταλγκάς - Μοιρολόϊ [Klagelied]
TTITLE2=Εσκενάζυ Ρόζα - Παντρεύτηκα για να χαρώ [Ich habe geheiratet, um mich 
TTITLE2=zu freuen]
TTITLE3=Αμπατζή Ρίτα - Πασουμάκια [Pasoumi]
TTITLE4=Διαμαντίδης Αντώνης ή Νταλγκάς - Μανές της καληνυχτιάς [Gute-Nacht-Lie
TTITLE4=d]
TTITLE5=Περδικόπουλος Δημήτρης - Στου Λινάρδου την ταβέρνα [Bei Linardos]
TTITLE6=Περπινιάδης Στελλάκης - Πέντε χρόνια δικασμένος [Fünf Jahre eingelocht
TTITLE6=]
TTITLE7=Γενίτσαρης Μιχάλης - Εγώ μάγκας φαινόμουνα [Mangas]
TTITLE8=Παγιουμτζής Στράτος - Ζούλα σε μιά βάρκα [Heimlich bestieg ich ein Boo
TTITLE8=t]
TTITLE9=Παπαϊωάννου Γιάννης - Πέντε Έλληνες στον Άδη [Fünf Griechen in der Höl
TTITLE9=le]
TTITLE10=Γενίτσαρης Μιχάλης - Σαλταδόρος [Lastwagendiebe]
TTITLE11=Τσιτσάνης Βασίλης - Το βαπόρι απ' την Περσία [Das schiff aus Persien]
TTITLE12=Τσιτσάνης Βασίλης-Νίνου Μαρίκα - Συννεφιασμένη Κυριακή [Trüber Sonnta
TTITLE12=g]
TTITLE13=Μπέλλου Σωτηρία - Πώς θα περάσει η βραδιά [Ich habe Angst, dich zu ve
TTITLE13=rlieren]
TTITLE14=Παγιουμτζής Στράτος - Μέσ' στης Πεντέλης τα βουνά [In den bergen des 
TTITLE14=Pendeli]
TTITLE15=Περπινιάδης Στελλάκης - Κάτω στα Λεμονάδικα [Die Taschendiebe]
TTITLE16=Τσαουσάκης Πρόδρομος - Τα ναυάγια [Die wracks]
TTITLE17=Βαμβακάρης Μάρκος - Φραγκοσυριανή [Frankosyriani]
TTITLE18=Φράττης Δημήτρης ή Μητσάρας - Τα τάλληρα [Die taler]
TTITLE19=Βαμβακάρης Μάρκος - Τα ματόκλαδά σου λάμπουν [Deine Augenlider]
TTITLE20=Τσαουσάκης Πρόδρομος - Ο Μποχώρης [Der bochoris]
TTITLE21=Μπέλλου Σωτηρία - Σαν πεθάνω στο καράβι [Wenn ich auf dem schiff ster
TTITLE21=be]
EXTD=YEAR: 1982\n
EXTT0=
EXTT1=
EXTT2=
EXTT3=
EXTT4=
EXTT5=
EXTT6=
EXTT7=
EXTT8=
EXTT9=
EXTT10=
EXTT11=
EXTT12=
EXTT13=
EXTT14=
EXTT15=
EXTT16=
EXTT17=
EXTT18=
EXTT19=
EXTT20=
EXTT21=
PLAYORDER=
